<svg xmlns="http://www.w3.org/2000/svg" fill="none" viewBox="0 0 128 128">
  <rect width="128" height="128" rx="16" fill="#1E2A3C"/>
  <path d="M40 48C40 44.6863 42.6863 42 46 42H70C73.3137 42 76 44.6863 76 48V52C76 55.3137 73.3137 58 70 58H52V70H70C73.3137 70 76 72.6863 76 76V80C76 83.3137 73.3137 86 70 86H46C42.6863 86 40 83.3137 40 80V48Z" fill="#D42C17"/>
  <path d="M82 48C82 44.6863 84.6863 42 88 42H94C97.3137 42 100 44.6863 100 48V80C100 83.3137 97.3137 86 94 86H88C84.6863 86 82 83.3137 82 80V48Z" fill="#D42C17"/>
  <style>
    @media (prefers-color-scheme: dark) {
      rect { fill: #D42C17; }
      path { fill: #1E2A3C; }
    }
  </style>
</svg>
